name Walk3.mot
datacolumns 19
datarows 20
range 2.00600000 2.02500000
endheader

                time	   L_ground_force_vx	   L_ground_force_vy	   L_ground_force_vz	   L_ground_force_px	   L_ground_force_py	   L_ground_force_pz	   R_ground_force_vx	   R_ground_force_vy	   R_ground_force_vz	   R_ground_force_px	   R_ground_force_py	   R_ground_force_pz	   L_ground_torque_x	   L_ground_torque_y	   L_ground_torque_z	   R_ground_torque_x	   R_ground_torque_y	   R_ground_torque_z	
          2.00600000	         -0.00309605	          0.00146574	         -0.00381385	         -0.00008681	          0.00000000	         -0.00002309	        -24.10673852	        834.25764716	        -77.67716985	          0.43532131	          0.00000000	          0.18833610	          0.00000000	          0.00020760	          0.00000000	          0.00000000	          9.19049449	          0.00000000	
          2.00700000	         -0.00385219	         -0.00082075	         -0.00351059	         -0.00008092	          0.00000000	         -0.00002144	        -23.75618532	        832.30618816	        -77.41911899	          0.43559866	          0.00000000	          0.18838450	          0.00000000	          0.00019893	          0.00000000	          0.00000000	          9.12316961	          0.00000000	
          2.00800000	         -0.00452948	         -0.00290973	         -0.00321985	         -0.00007523	          0.00000000	         -0.00001985	        -23.40960740	        830.39612736	        -77.16468581	          0.43587397	          0.00000000	          0.18843287	          0.00000000	          0.00019026	          0.00000000	          0.00000000	          9.05649979	          0.00000000	
          2.00900000	         -0.00513207	         -0.00481011	         -0.00294166	         -0.00006973	          0.00000000	         -0.00001832	        -23.06685752	        828.52715589	        -76.91395144	          0.43614723	          0.00000000	          0.18848122	          0.00000000	          0.00018160	          0.00000000	          0.00000000	          8.99045933	          0.00000000	
          2.01000000	         -0.00566403	         -0.00653073	         -0.00267600	         -0.00006445	          0.00000000	         -0.00001685	        -22.72779057	        826.69900274	        -76.66699537	          0.43641845	          0.00000000	          0.18852954	          0.00000000	          0.00017299	          0.00000000	          0.00000000	          8.92502308	          0.00000000	
          2.01100000	         -0.00612936	         -0.00808037	         -0.00242282	         -0.00005936	          0.00000000	         -0.00001544	        -22.39226326	        824.91143430	        -76.42389575	          0.43668761	          0.00000000	          0.18857783	          0.00000000	          0.00016445	          0.00000000	          0.00000000	          8.86016622	          0.00000000	
          2.01200000	         -0.00653197	         -0.00946773	         -0.00218201	         -0.00005449	          0.00000000	         -0.00001409	        -22.06013346	        823.16425293	        -76.18472956	          0.43695472	          0.00000000	          0.18862608	          0.00000000	          0.00015603	          0.00000000	          0.00000000	          8.79586415	          0.00000000	
          2.01300000	         -0.00687566	         -0.01070135	         -0.00195344	         -0.00004982	          0.00000000	         -0.00001281	        -21.73125920	        821.45729543	        -75.94957301	          0.43721977	          0.00000000	          0.18867429	          0.00000000	          0.00014773	          0.00000000	          0.00000000	          8.73209221	          0.00000000	
          2.01400000	         -0.00716415	         -0.01178964	         -0.00173691	         -0.00004536	          0.00000000	         -0.00001158	        -21.40549757	        819.79043144	        -75.71850226	          0.43748276	          0.00000000	          0.18872245	          0.00000000	          0.00013957	          0.00000000	          0.00000000	          8.66882554	          0.00000000	
          2.01500000	         -0.00740103	         -0.01274086	         -0.00153223	         -0.00004111	          0.00000000	         -0.00001042	        -21.08270383	        818.16356193	        -75.49159465	          0.43774369	          0.00000000	          0.18877055	          0.00000000	          0.00013159	          0.00000000	          0.00000000	          8.60603886	          0.00000000	
          2.01600000	         -0.00758981	         -0.01356305	         -0.00133916	         -0.00003707	          0.00000000	         -0.00000931	        -20.76273086	        816.57661772	        -75.26893012	          0.43800256	          0.00000000	          0.18881859	          0.00000000	          0.00012378	          0.00000000	          0.00000000	          8.54370646	          0.00000000	
          2.01700000	         -0.00773386	         -0.01426408	         -0.00115745	         -0.00003323	          0.00000000	         -0.00000827	        -20.44542912	        815.02955791	        -75.05059247	          0.43825936	          0.00000000	          0.18886657	          0.00000000	          0.00011617	          0.00000000	          0.00000000	          8.48180211	          0.00000000	
          2.01800000	         -0.00783644	         -0.01485161	         -0.00098682	         -0.00002959	          0.00000000	         -0.00000728	        -20.13064695	        813.52236793	        -74.83667035	          0.43851412	          0.00000000	          0.18891449	          0.00000000	          0.00010877	          0.00000000	          0.00000000	          8.42029929	          0.00000000	
          2.01900000	         -0.00790068	         -0.01533307	         -0.00082696	         -0.00002614	          0.00000000	         -0.00000635	        -19.81823113	        812.05505740	        -74.62725781	          0.43876681	          0.00000000	          0.18896234	          0.00000000	          0.00010159	          0.00000000	          0.00000000	          8.35917132	          0.00000000	
          2.02000000	         -0.00792961	         -0.01571565	         -0.00067757	         -0.00002290	          0.00000000	         -0.00000547	        -19.50802757	        810.62765754	        -74.42245453	          0.43901745	          0.00000000	          0.18901013	          0.00000000	          0.00009463	          0.00000000	          0.00000000	          8.29839164	          0.00000000	
          2.02100000	         -0.00792611	         -0.01600631	         -0.00053832	         -0.00001984	          0.00000000	         -0.00000465	        -19.19988204	        809.24021835	        -74.22236605	          0.43926603	          0.00000000	          0.18905786	          0.00000000	          0.00008791	          0.00000000	          0.00000000	          8.23793403	          0.00000000	
          2.02200000	         -0.00789296	         -0.01621178	         -0.00040888	         -0.00001696	          0.00000000	         -0.00000388	        -18.89364087	        807.89280576	        -74.02710396	          0.43951256	          0.00000000	          0.18910552	          0.00000000	          0.00008143	          0.00000000	          0.00000000	          8.17777279	          0.00000000	
          2.02300000	         -0.00783280	         -0.01633851	         -0.00028890	         -0.00001427	          0.00000000	         -0.00000316	        -18.58915153	        806.58549896	        -73.83678613	          0.43975702	          0.00000000	          0.18915313	          0.00000000	          0.00007519	          0.00000000	          0.00000000	          8.11788284	          0.00000000	
          2.02400000	         -0.00774816	         -0.01639274	         -0.00017803	         -0.00001175	          0.00000000	         -0.00000249	        -18.28626303	        805.31838821	        -73.65153673	          0.43999942	          0.00000000	          0.18920068	          0.00000000	          0.00006919	          0.00000000	          0.00000000	          8.05823974	          0.00000000	
          2.02500000	         -0.00764143	         -0.01638040	         -0.00007591	         -0.00000940	          0.00000000	         -0.00000186	        -17.98482616	        804.09157325	        -73.47148597	          0.44023976	          0.00000000	          0.18924818	          0.00000000	          0.00006345	          0.00000000	          0.00000000	          7.99881959	          0.00000000	
